<?xml version="1.0" encoding="utf-8"?>
<!-- Generator: Adobe Illustrator 27.6.1, SVG Export Plug-In . SVG Version: 6.00 Build 0)  -->
<svg version="1.1" id="Layer_1" xmlns="http://www.w3.org/2000/svg" xmlns:xlink="http://www.w3.org/1999/xlink" x="0px" y="0px"
	 viewBox="0 0 2196.5 2917" style="enable-background:new 0 0 2196.5 2917;" xml:space="preserve">
<style type="text/css">
	.st0{fill:#FFA840;}
	.st1{fill:#FEB85B;}
	.st2{fill:#650000;}
	.st3{fill:#EF6A20;}
	.st4{opacity:0.3;}
	.st5{opacity:0.55;}
	.st6{fill:#FFFFFF;}
	.st7{fill:#77223C;}
	.st8{fill:#792937;}
</style>
<g>
	<g>
		<g>
			<g>
				<path class="st0" d="M2094.1,1823c-24,252-484.6,365.7-1034.4,313.3c-549.8-52.4-980.6-251-956.6-503
					c12.7-132.8,147.9-240.6,353.5-305.2c184.4-57.9,425.5-81.1,685.5-56.3c237.7,22.6,452.2,81.6,617.4,161.6
					C1976.2,1538.5,2107.7,1679.9,2094.1,1823z"/>
			</g>
			<g>
				<path class="st1" d="M1949.2,1572.2c-42.7-49.7-108.2-97-191.3-138.9c0,0,0.5,0.1,1.5,0.1c47.1,22.8,90.2,47.4,128.7,73.3
					C1911.5,1528.1,1932,1549.9,1949.2,1572.2z"/>
				<path class="st2" d="M1947.3,1573.9c-42.3-49.3-106.4-95.8-190.6-138.3l-11.9-6l15.7,1.7c47.1,22.8,90.5,47.6,129,73.5
					c24,21.7,44.7,43.9,61.7,66L1947.3,1573.9z M1872.7,1499.6c8.2,6,16.1,12.1,23.6,18.2c-3.2-3.1-6.5-6.1-9.9-9.2
					C1881.9,1505.6,1877.3,1502.6,1872.7,1499.6z"/>
			</g>
			<g>
				<path class="st3" d="M2094.1,1823c-24,252-484.6,365.7-1034.4,313.3c-549.8-52.4-980.6-251-956.6-503
					c12.7-132.8,147.9-240.6,353.5-305.2l3.1,0.7C313,1379,219.7,1454.4,211,1546c-8.1,85.4,59.8,159.1,179.2,219.2
					c108.7,46.6,222.9,82.8,341.9,109.9l-9.7-43.1c-2.6-11.6,2.6-23.7,12.8-29.7l36.7-21.7c6.9-4.1,14.7-6.3,22.7-6.6l57.3-2
					c5.9-0.2,7.4,8,1.8,9.9l-26.5,8.9c-8.4,2.8-15.8,8-21.3,15l-16,20.3c-8.3,10.6-8.6,25.4-0.6,36.2l21.5,29.2
					c135.1,25.9,276,41,421.7,47c424.4,22,755.3-43.9,772.2-221.7c9.6-101-85.7-202.2-246.8-283.5c0,0,0.5,0.1,1.5,0.1
					C1976.2,1538.5,2107.7,1679.9,2094.1,1823z"/>
			</g>
			<g class="st4">
				<path class="st2" d="M2079.1,1813c-24,252-484.6,365.7-1034.4,313.3c-380.8-36.3-704.5-142.7-859.6-288.4
					c172.8,112.9,454.7,194.1,777.7,224.9c549.8,52.4,1010.4-61.3,1034.4-313.3c3-31.8-1.1-63.4-11.7-94.6c0,0,0,0,0-0.1
					c-7.9-31.2-25.2-62.1-50.9-92.1c-0.1-0.1-0.2-0.3-0.4-0.4c-42.7-49.7-108.2-97-191.3-138.9c0,0,0.5,0.1,1.5,0.1
					c47.1,22.8,90.2,47.4,128.7,73.3C2011.5,1590.1,2089.7,1701.1,2079.1,1813z"/>
			</g>
			<g>
				<path class="st3" d="M782.9,1461.7l-68.5-6.5l-45.1-54.2L521,1411.8l-129.8-60.7l-100.7,37.7l213.2,46.3l149.3,3.4l64.9,50.8
					l65.9-15C790.8,1472.7,790.1,1462.4,782.9,1461.7z"/>
			</g>
			<g>
				<path class="st3" d="M1430.5,1319.3l-70.9,58.7l-72.2,6c-15.3,1.3-28.2,12.2-31.9,27.1l-15.7,62.5c-1.4,5.5,6,8.6,9,3.8
					l42.6-69.2l116.8,2.2l110.5-67.8"/>
			</g>
			<g class="st5">
				<path class="st6" d="M2072,1702.5c-54.9-83.9-155.9-162.1-289-226.6c-165.1-80-379.7-139-617.4-161.6
					c-260-24.8-501.1-1.6-685.5,56.3c-205.6,64.5-340.8,172.3-353.5,305.2c-3.6,37.3,2.8,73.5,18.2,108.2
					c-31.9-47.3-46.8-97.8-41.8-150.6c12.7-132.8,147.9-240.6,353.5-305.2c184.4-57.9,425.5-81.1,685.5-56.3
					c237.7,22.6,452.2,81.6,617.4,161.6C1914.8,1508.8,2026.3,1602.7,2072,1702.5z"/>
			</g>
			<g>
				<polyline class="st3" points="1367.6,1698.5 1533.9,1745.3 1563.2,1806.5 1665,1827.3 1813.9,1918.5 1668.6,1947.7 
					1637.2,1855.8 1511.6,1856.5 1513.6,1764.9 1362.7,1749.4 				"/>
			</g>
			<g>
				<path class="st2" d="M1314.5,2166.3c-82.5,0-168.4-4.1-256.5-12.5c-275.6-26.3-524.1-89.6-699.7-178.4
					c-190.6-96.4-284.9-215.2-272.7-343.6c12.3-129.1,130.9-239.1,334-309.7c198.6-69.1,455.7-93,724.1-67.5
					c268.4,25.6,516.3,97.7,698.3,203c186.1,107.7,281.8,238.1,269.5,367.2c-12.2,128.4-127.3,227.3-332.6,286
					C1650,2147.4,1490.3,2166.3,1314.5,2166.3z M936.4,1279.5c-187.5,0-362.2,25.7-505.2,75.5c-189.4,65.9-299.7,165.3-310.6,280
					c-13.6,142.6,130.4,246.8,253.6,309.1c171.8,86.9,415.9,149,687.2,174.8c271.3,25.9,522.7,11,707.9-41.9
					c132.7-37.9,293.8-113,307.4-255.6l17.4,1.7l-17.4-1.7c10.9-114.7-78.6-233.1-252.2-333.6c-177.7-102.9-420.6-173.3-684.1-198.4
					C1071.3,1282.7,1003,1279.5,936.4,1279.5z"/>
			</g>
			<g>
				<path class="st2" d="M387.9,1769.7c-26.2-8.5-51.3-20.2-75.2-34.5c-23.8-14.4-46.4-31.5-65.9-52.7c-19.3-21.1-35.6-46.3-44.2-75
					l-3.1-10.7c-0.8-3.7-1.4-7.4-2-11c-0.7-3.7-1.3-7.4-1.4-11.1l-0.8-11.2c-0.1-3.7,0.2-7.5,0.3-11.2c0.2-3.7,0.1-7.5,0.8-11.1
					c1.2-7.3,1.9-14.8,4.2-21.9c7.5-28.8,22.6-54.9,41.1-76.7c18.6-22,40.6-40.2,63.7-56c23.2-15.8,47.6-29.2,72.6-41.1
					c25.1-11.7,50.8-21.7,76.7-30.8c7.8-2.7,16.4,1.4,19.1,9.2s-1.4,16.4-9.2,19.1l-0.2,0.1c-25,8.8-49.8,18.4-73.7,29.5
					c-23.8,11.3-46.9,24-68.4,38.6c-21.5,14.6-41.4,31.4-57.8,50.7c-16.3,19.3-28.8,41.2-35,64.8c-2,5.8-2.3,11.9-3.4,17.9
					c-0.6,3-0.5,6-0.7,9.1c-0.1,3-0.4,6.1-0.3,9.1c0.6,6,0.5,12.1,2,18l1.7,8.9l2.7,8.7c7.3,23.2,22.1,43.9,38.8,62.8
					c16.9,18.9,36.4,36.1,57.2,52.3c20.7,16.3,42.6,31.4,64.7,47.4l0,0c2.3,1.6,2.8,4.8,1.1,7.1
					C392.3,1769.6,390,1770.3,387.9,1769.7z"/>
			</g>
			<g>
				<path class="st2" d="M873.5,1906.6c-22.7,1.2-45-0.4-67.2-2.8c-22.2-2.5-44.2-6.4-66-11.1c-21.8-4.8-43.4-10.3-64.8-16.9
					c-21.3-6.7-42.5-14.1-62.9-23.6c-2.5-1.2-3.6-4.2-2.5-6.7c0.9-2,3-3.1,5.1-2.9c22.3,2.1,44.2,5.7,66,9.1
					c21.8,3.6,43.5,7.6,65.1,11.8c21.6,4.2,43.2,8.8,64.7,14.1c21.4,5.4,42.8,11.2,64,19.2c2.6,1,4,3.9,3,6.6
					C877.3,1905.3,875.5,1906.5,873.5,1906.6z"/>
			</g>
			<g>
				<path class="st2" d="M1764.6,1420c47.4,24,93.4,51.4,135.5,84.9c21,16.8,41,35.1,58.9,55.8c18,20.5,33.8,43.6,45.2,69.3
					c11.4,25.6,17.6,54.5,15.7,83.4c-0.1,1.8-0.2,3.6-0.4,5.4l-0.8,5.4l-1.7,10.7c-0.6,3.6-1.8,7-2.7,10.5
					c-1.1,3.5-1.7,7.1-3.1,10.4l-4,10.1c-0.7,1.7-1.3,3.4-2.1,5l-2.6,4.8l-5.1,9.5c-1.8,3.1-4,5.9-6,8.9
					c-16.3,23.6-37.6,42.5-60.3,57.9c-22.8,15.4-47.3,27.5-72.2,37.7c-25,10.1-50.4,18.7-76.2,25.5c-25.8,6.9-51.7,13-77.8,17.7
					c-26.1,5-52.3,9-78.5,12.4c-26.2,3.2-52.6,5.9-78.9,7.7c-13.2,1.1-26.4,1.5-39.5,2.1c-13.2,0.7-26.4,0.9-39.5,1.3
					c-26.4,0.5-52.7,0.3-79-0.4c-52.6-1.5-105.1-5.5-157.3-12.3c-2.7-0.4-4.7-2.9-4.3-5.6c0.3-2.5,2.4-4.3,4.8-4.4
					c104.8-2.8,209-4.3,312.5-12.5c51.7-3.9,103.4-9.2,154.2-18.3c50.8-9,101-21.7,148.1-40.9c23.5-9.6,46.2-20.9,66.8-34.8
					c20.6-13.9,39-30.5,52.4-50c1.6-2.5,3.5-4.8,5-7.4l4.2-7.8l2.1-3.9c0.6-1.3,1.1-2.7,1.7-4.1l3.3-8.1c1.2-2.7,1.6-5.6,2.5-8.4
					c0.7-2.8,1.7-5.6,2.2-8.5l1.3-8.7l0.7-4.3c0.2-1.5,0.2-2.9,0.3-4.4c1.6-23.5-3.4-47.3-13.2-69.4c-9.8-22.2-23.9-42.9-40.3-61.7
					c-16.4-18.9-35.2-36.1-55-52c-39.9-31.8-84.3-58.3-130.2-81.6l-0.1,0c-7.4-3.7-10.3-12.8-6.6-20.2
					C1748.2,1419.2,1757.2,1416.2,1764.6,1420L1764.6,1420z"/>
			</g>
			<g class="st4">
				<path class="st2" d="M431.4,1625.7c57,171.2,415,175.9,286.2,41.9"/>
			</g>
			<g class="st4">
				<path class="st2" d="M665.7,1305c57,171.2,415,175.9,286.2,41.9"/>
			</g>
			<g class="st4">
				<path class="st2" d="M1180.7,1732.1c57,171.2,364.4,131.1,235.5-2.9"/>
			</g>
			<g class="st4">
				<path class="st2" d="M1520.1,1556.8c57,171.2,319.1,116.5,190.2-17.6"/>
			</g>
			<g class="st4">
				<path class="st2" d="M981.4,1536.5c33.1,99.5,205.2,79.8,130.3,1.9"/>
			</g>
			<g>
				<path class="st7" d="M1690.3,1602.4c24.4-7.1,35.2-35.5,23.1-57.8c-41.8-77.2-141.3-81.1-184.3-36.7
					c-14.9,15.1-14.2,33.8,2.1,42.2c5,2.6,10.7,3.7,16.3,3.5c7.9-0.2,27.8,2.4,41.7,30.9C1594.7,1595.9,1651.4,1613.6,1690.3,1602.4
					z"/>
				<path class="st2" d="M1662,1608.5c-34.3,0-70.3-12.8-75.1-22.7c-13.3-27.2-32-29.7-39.4-29.5c-6.3,0.1-12.3-1.2-17.5-3.8
					c-7.7-4-12.6-10.4-13.8-18c-1.5-9.3,2.6-19.6,11.1-28.2c21.6-22.3,57.5-33.1,93.9-28.1c40.5,5.5,74.9,29.3,94.4,65.3
					c6.3,11.7,7,25.3,1.9,37.6c-4.9,11.7-14.6,20.3-26.5,23.8l0,0C1682,1607.4,1672.1,1608.5,1662,1608.5z M1548.3,1551.2
					c8.9,0,29,3.5,43.1,32.3c4.8,9.8,60.3,27.4,98.2,16.4l0,0c10.5-3,19-10.7,23.3-20.9c4.5-10.8,3.9-22.9-1.7-33.2
					c-18.7-34.6-51.8-57.4-90.7-62.8c-34.8-4.8-69.2,5.5-89.7,26.7c-7.4,7.5-11,16.2-9.7,23.9c1,6.1,4.8,11.1,11.2,14.4
					c4.4,2.3,9.6,3.5,15.1,3.3C1547.7,1551.2,1548,1551.2,1548.3,1551.2z"/>
			</g>
			<g class="st5">
				<path class="st6" d="M1716,1577.9c-0.4-0.8-0.8-1.7-1.2-2.5c-41.8-77.2-141.3-81.1-184.3-36.6c-2.2,2.2-4.1,4.5-5.6,6.9
					c-9.9-9.5-8.5-25,4.2-37.8c43-44.4,142.5-40.5,184.3,36.6C1719.2,1555.3,1719.7,1567.4,1716,1577.9z"/>
			</g>
			<g>
				<path class="st7" d="M678.9,1704.5c36.5-10.6,52.8-53.1,34.6-86.6c-62.7-115.6-211.8-121.5-276.2-54.9
					c-22.3,22.6-21.3,50.7,3.1,63.3c7.5,3.9,16,5.5,24.4,5.3c11.8-0.3,41.6,3.6,62.5,46.3C535.7,1694.8,620.6,1721.4,678.9,1704.5z"
					/>
				<path class="st2" d="M636.3,1712.4c-50.9,0-104-18.8-111.1-33.4c-20.2-41.4-48.9-45.2-60.2-44.9c-9.2,0.2-18.1-1.7-25.6-5.6
					c-11.2-5.8-18.3-15-20.1-26.1c-2.1-13.5,3.8-28.5,16.3-41.2c32.1-33.1,85.6-49.2,139.7-41.8c60.2,8.2,111.4,43.7,140.5,97.2
					c9.3,17.1,10.3,37.3,2.8,55.2c-7.2,17.1-21.4,29.9-39,35l0,0C666.2,1710.8,651.3,1712.4,636.3,1712.4z M466.2,1629.1
					c13.1,0,42.7,5.1,63.5,47.7c7.3,15,91.3,41.9,148.6,25.3l0,0c16.1-4.7,29.2-16.4,35.7-32.1c6.9-16.5,6-35.1-2.6-50.9
					c-28.3-52.2-78.1-86.7-136.8-94.7c-52.5-7.2-104.4,8.3-135.4,40.3c-11.4,11.5-16.8,25-14.9,36.9c1.5,9.6,7.6,17.4,17.4,22.5
					c6.8,3.5,14.8,5.3,23.2,5C465.3,1629.1,465.7,1629.1,466.2,1629.1z"/>
			</g>
			<g class="st5">
				<path class="st6" d="M716.5,1670.4c-1.2-5.8-3.3-11.7-6.2-17.2c-62.7-115.6-211.8-121.5-276.2-54.9c-3.9,3.9-7.1,8.1-9.6,12.2
					c-6.7-13.8-2.4-32,12.9-47.5c64.5-66.6,213.5-60.7,276.2,54.9C722.8,1634.9,723.2,1654.1,716.5,1670.4z"/>
			</g>
			<g>
				<path class="st2" d="M637.2,1724.7c-53.6,0-112.8-18.9-123.2-40.1c-17.1-34.9-39.5-38.1-48.6-37.9c-11.2,0.3-22.2-2.1-31.7-7
					c-14.8-7.6-24.3-20.1-26.7-35.3c-2.8-17.5,4.4-36.4,19.8-51.9c34.7-35.9,92.3-53.3,150.3-45.4c64.2,8.8,118.8,46.6,149.8,103.7
					c11.1,20.5,12.3,44.5,3.4,66c-8.6,20.6-25.8,36-47,42.1C669.3,1722.9,653.5,1724.7,637.2,1724.7z M540.6,1670.8
					c10,11.3,82.9,34.1,134.2,19.3l0,0c12.7-3.7,22.5-12.5,27.7-24.9c5.5-13,4.7-27.6-2.1-40.1c-26.4-48.6-72.8-80.8-127.5-88.3
					c-48.7-6.7-96.5,7.4-124.8,36.6c-8.7,8.8-12.8,18.3-11.6,26.2c0.9,5.6,4.5,10.1,10.8,13.3c5,2.6,10.9,3.8,17.2,3.6
					C479.3,1616.3,515.9,1620.8,540.6,1670.8z"/>
			</g>
			<g>
				<path class="st2" d="M1661.6,1621c-37.8,0-78.1-13.9-85.9-29.8c-10.1-20.7-22.9-22.7-27.8-22.5c-8.5,0.2-16.5-1.6-23.6-5.2
					c-11.3-5.8-18.6-15.5-20.5-27.2c-2.1-13.2,3.2-27.4,14.6-38.9c24.2-25,64.3-37.2,104.5-31.7c44.5,6.1,82.2,32.2,103.7,71.8
					c8.1,15,9,32.6,2.5,48.3c-6.3,15.2-19,26.5-34.6,31l0,0C1684.4,1619.7,1673.1,1621,1661.6,1621z M1690.3,1602.4L1690.3,1602.4
					L1690.3,1602.4z M1602,1576.8c8.2,6.7,52.7,20.3,84.1,11.2c7-2,12.4-6.9,15.2-13.8c3.1-7.3,2.6-15.5-1.2-22.5
					c-16.8-31-46.5-51.6-81.4-56.3c-30.9-4.2-61.2,4.6-79,23c-5.4,5.5-6.8,10.4-6.4,13.3c0.1,0.8,0.5,3.1,4.6,5.2
					c2.6,1.3,5.7,2,9,1.9C1557.7,1538.5,1584.2,1541.6,1602,1576.8z"/>
			</g>
			<g>
				<path class="st7" d="M1416.2,1729.1c-1.7-132.8-146-132.2-221.2-45.9c-23.3,26.7-13.1,67.6,20,80.3
					c46.5,17.8,110.2,22.3,156.1,17.2C1397.1,1777.8,1416.6,1755.3,1416.2,1729.1z"/>
				<path class="st2" d="M1333.7,1785.2c-38.4,0-83.5-5.5-119.5-19.3c-16.5-6.3-28.4-19.7-32.7-36.6c-4.2-16.9,0-34.3,11.7-47.7
					c43.9-50.3,112.7-73.3,163.7-54.5c39.3,14.4,61.2,50.6,61.9,102l0,0c0.3,27.8-20,51.1-47.4,54.1
					C1360.1,1784.5,1347.3,1785.2,1333.7,1785.2z M1318.5,1625.6c-42.2,0-89,21.9-121.6,59.3c-10.5,12.1-14.4,27.8-10.6,43.2
					c3.8,15.3,14.6,27.4,29.6,33.1c48,18.4,112.4,21.8,154.9,17c24.8-2.8,43.2-23.9,42.9-49.1l0,0c-0.6-49.1-21.4-83.7-58.6-97.4
					C1343.7,1627.6,1331.3,1625.6,1318.5,1625.6z"/>
			</g>
			<g class="st5">
				<path class="st6" d="M1411.8,1693.6c-42.3-59.4-142.9-44.1-201.5,23.1c-9.2,10.6-13.2,23.5-12.5,35.9
					c-18.5-17.8-21.2-48.1-2.7-69.4C1262.9,1605.4,1386.7,1597.3,1411.8,1693.6z"/>
			</g>
			<g>
				<path class="st2" d="M1332.9,1797.7c-38.1,0-84.1-5.2-123.2-20.2c-20.4-7.8-35.1-24.3-40.3-45.2c-5.2-21,0-42.4,14.4-58.9
					c47.1-54.1,121.8-78.5,177.5-58c25.8,9.5,69.1,36.8,70.1,113.6l0,0c0.4,34.2-24.7,62.9-58.5,66.7
					C1361.2,1796.9,1347.7,1797.7,1332.9,1797.7z M1318.2,1638c-38.5,0-81.6,20.4-111.9,55.1c-7.8,9-10.7,20.6-7.9,31.9
					c2.8,11.3,10.8,20.2,21.9,24.5c46.1,17.6,108.1,20.9,149.1,16.3c18.1-2,32-18.1,31.8-36.5l0,0c-0.6-44.2-18-73.9-50.4-85.8
					C1340.7,1639.8,1329.6,1638,1318.2,1638z"/>
			</g>
			<g>
				<path class="st7" d="M951.1,1326.4c-4.8-133.1-180.8-135.5-270.8-50.6c-27.8,26.3-14.5,67.5,26.1,80.9
					c57.2,18.8,134.8,24.7,190.8,20.5C928.8,1374.8,952.1,1352.7,951.1,1326.4z"/>
				<path class="st2" d="M861.4,1380.9c-48.8,0-108.5-6.3-155.9-21.9c-21.8-7.2-37.2-22.6-41.4-41.3c-3.5-15.8,1.7-31.7,14.4-43.7
					c55.8-52.7,145.3-73.1,208-47.4c41.5,17,65.3,52.4,67.1,99.7c1,27.9-23.2,50.9-56.3,53.3
					C886.4,1380.5,874.3,1380.9,861.4,1380.9z M826.2,1220.5c-50.5,0-105.6,20.7-144.3,57.2c-11.4,10.7-16.1,24.9-13,39
					c3.8,17,18,31.1,38.1,37.7c59.2,19.5,138,24.2,189.8,20.4c30.4-2.3,52.6-23,51.7-48.2c-2.1-57.9-35.9-83.8-64-95.3
					C866.9,1224,847,1220.5,826.2,1220.5z"/>
			</g>
			<g class="st5">
				<path class="st6" d="M943.4,1286.4c-55.8-52.6-171.6-38-239,25.6c-11.4,10.8-15.9,24.1-14.5,36.9c-27.3-17.6-33.4-50.7-9.7-73.1
					C760.2,1200.4,907.9,1193.9,943.4,1286.4z"/>
			</g>
			<g>
				<path class="st2" d="M861.6,1393.4c-50,0-111.3-6.5-160-22.5c-26-8.6-44.6-27.4-49.7-50.5c-4.5-20.2,2.1-40.4,18-55.5
					c59.2-55.9,154.3-77.3,221.3-49.9c46.3,19,72.9,58.4,74.8,110.8l0,0c1.3,34.8-27.9,63.3-67.8,66.3
					C887.1,1393,874.7,1393.4,861.6,1393.4z M827,1233.2c-47.6,0-100.4,19.6-136.4,53.5c-8.2,7.7-11.5,17.4-9.3,27.2
					c2.8,12.7,14,23.3,29.8,28.5c57.5,18.9,134.4,23.6,185,19.8c23.1-1.7,40.8-17.2,40.1-35.3l0,0c-1.9-51.3-31.6-74.1-56.2-84.2
					C864,1236.3,845.9,1233.2,827,1233.2z"/>
			</g>
			<g>
				<path class="st7" d="M1878.6,1722.6c-32.8,15.6-59.1,32.8-75.4,52.3c-23.9,28.6-15.7,72.1,15.9,91.9
					c46.1,28.9,91.1,37.8,133.7,4.1c30.4-24,45.4-63.5,38.5-101.6c-5.1-28.4-20.5-49.2-52.8-55.3
					C1918.3,1710.2,1897.3,1713.7,1878.6,1722.6z"/>
				<path class="st2" d="M1894.3,1894.9c-23.4,0-48.8-8.7-76.5-26c-16.1-10.1-27.1-26.7-30.1-45.5c-2.9-18.1,2.1-36.3,13.6-50.1
					c15.5-18.5,40.4-35.9,76.2-52.9l0,0c19.7-9.4,41.6-12.5,61.5-8.7c30.5,5.8,49,25,54.8,57.3c7,38.7-8.5,79.5-39.4,104
					C1935.8,1887.5,1915.8,1894.9,1894.3,1894.9z M1879.7,1724.8c-35.1,16.7-59.5,33.6-74.5,51.6c-10.8,12.9-15.2,29.3-12.5,46.1
					c2.8,17.4,12.9,32.7,27.8,42.1c51.8,32.5,93.4,33.9,130.8,4.3c29.5-23.3,44.2-62.3,37.6-99.2c-5.5-30.4-22.1-47.8-50.8-53.3
					C1919.2,1712.9,1898.5,1715.9,1879.7,1724.8L1879.7,1724.8z"/>
			</g>
			<g class="st5">
				<path class="st6" d="M1989.3,1760.5c-8.1-7.2-18.6-12.3-32-14.8c-20.3-3.8-41.3-0.3-59.9,8.6c-32.8,15.6-59.1,32.7-75.3,52.2
					c-12.9,15.4-16.5,35.2-12.1,53.3c-23.8-21.8-28.1-59.3-6.7-85c16.3-19.5,42.6-36.6,75.4-52.2c18.6-8.9,39.6-12.3,59.9-8.6
					C1967.3,1719.5,1982.7,1736.6,1989.3,1760.5z"/>
			</g>
			<g>
				<path class="st7" d="M1043.1,1462.6c-20.2,9.6-36.3,20.1-46.3,32.1c-14.7,17.6-9.7,44.3,9.8,56.5c28.3,17.8,56,23.2,82.1,2.5
					c18.7-14.8,27.9-39,23.7-62.4c-3.1-17.5-12.6-30.2-32.4-34C1067.5,1455,1054.6,1457.2,1043.1,1462.6z"/>
				<path class="st2" d="M1052.7,1569.5c-14.6,0-30.3-5.4-47.5-16.1c-10.1-6.4-17-16.8-18.9-28.6c-1.8-11.4,1.3-22.9,8.6-31.6
					c9.6-11.5,25-22.2,47.2-32.8l0,0c12.3-5.9,25.9-7.8,38.4-5.4c19.2,3.6,30.8,15.7,34.4,36c4.3,24.1-5.3,49.6-24.6,64.8
					C1078.6,1564.9,1066.2,1569.5,1052.7,1569.5z M1044.2,1464.9c-21.5,10.2-36.4,20.5-45.5,31.5c-6.4,7.7-9.1,17.5-7.5,27.6
					c1.7,10.4,7.7,19.6,16.6,25.2c31.5,19.7,56.7,20.6,79.3,2.7c17.8-14.1,26.8-37.7,22.8-60c-3.3-18.2-13.2-28.7-30.4-31.9
					C1068.1,1457.7,1055.5,1459.5,1044.2,1464.9L1044.2,1464.9z"/>
			</g>
			<g class="st5">
				<path class="st6" d="M1113.2,1506.6c-5.2-9.2-13.8-15.6-26.9-18.1c-12.5-2.3-25.4-0.2-36.9,5.3c-20.1,9.6-36.3,20.1-46.3,32.1
					c-3.7,4.5-6.2,9.7-7.5,15c-9.7-13.5-10.1-32.6,1.2-46.1c10-12,26.2-22.5,46.3-32.2c11.4-5.4,24.4-7.6,36.8-5.2
					c19.8,3.7,29.3,16.5,32.4,34C1113.3,1496.5,1113.5,1501.5,1113.2,1506.6z"/>
			</g>
			<g>
				<path class="st2" d="M1894.4,1907.6c-25.7,0-53.3-9.4-83.2-28.2c-19.2-12-32.2-31.8-35.8-54.2c-3.4-21.6,2.5-43.5,16.4-60.1
					c16.7-20,43-38.3,80.4-56.2l0,0c22.4-10.7,46.3-14,69.2-9.7c35.6,6.7,58,30,64.7,67.4c7.9,43.9-9,88.3-44,116
					C1941,1899.3,1918.6,1907.6,1894.4,1907.6z M1885.1,1736.1c-33.5,15.9-56.5,31.8-70.3,48.3c-8.4,10.1-11.9,22.9-9.8,36.2
					c2.2,13.8,10.2,26,22.1,33.4c47.4,29.7,83.3,31.3,116.4,5.1c25.9-20.5,38.9-54.7,33.1-87.2c-4.5-25.1-17.5-38.8-40.8-43.2
					C1919.5,1725.7,1901.5,1728.3,1885.1,1736.1L1885.1,1736.1z"/>
			</g>
			<g>
				<path class="st2" d="M1052.9,1582c-16.9,0-35.1-6-54.3-18.1c-13.2-8.3-22.2-21.9-24.6-37.3c-2.4-14.9,1.8-30.1,11.3-41.6
					c10.8-12.9,27.6-24.7,51.4-36l0,0c14.9-7.1,30.8-9.3,46.1-6.4c24.5,4.6,39.8,20.5,44.4,46c5.2,29.1-5.9,58.5-29.1,76.8
					C1084.1,1576.5,1069,1582,1052.9,1582z M1049.6,1476.2c-19.5,9.3-33.4,18.8-41.2,28.2c-4.1,4.9-5.8,11.1-4.7,17.6
					c1.1,6.8,5.1,12.9,10.9,16.6c27.1,17,46.5,18,64.9,3.5c14.3-11.3,21.4-30.1,18.2-48c-2.3-13.1-8.5-19.6-20.4-21.9
					C1068.3,1470.5,1058.5,1471.9,1049.6,1476.2L1049.6,1476.2z"/>
			</g>
			<g>
				<polygon class="st3" points="833.5,1680 872.4,1640.7 944.6,1632.9 1009,1607.7 952.3,1660 897.8,1663.5 				"/>
			</g>
		</g>
		<g>
			<g>
				<path class="st0" d="M110.7,762.4c39.2,250.1,505.9,335.7,1051.5,250.1c545.6-85.6,963.6-309.9,924.4-560
					c-20.7-131.8-162.2-231.2-371.3-283.2c-187.6-46.6-429.6-55.1-687.6-14.7c-235.9,37-446.5,108.9-606.4,198.7
					C211.1,471.3,88.4,620.4,110.7,762.4z"/>
			</g>
			<g>
				<path class="st1" d="M240.1,503.3c39.6-52.2,102.2-103.3,182.6-150.2c0,0-0.5,0.1-1.5,0.2c-45.6,25.6-87.2,52.7-124,80.9
					C275,456.9,255.9,480,240.1,503.3z"/>
				<path class="st2" d="M242.1,504.8l-4.1-2.9c15.7-23.1,35-46.5,57.3-69.4c37.1-28.4,78.9-55.7,124.6-81.4l0.8-0.3l14.7-2.3
					l-11.5,6.7C342.5,402.7,281.3,453,242.1,504.8z M311.8,426.4c-4.4,3.3-8.8,6.6-13.1,9.9c-3.1,3.2-6.2,6.5-9.3,9.7
					C296.5,439.4,304,432.9,311.8,426.4z"/>
			</g>
			<g>
				<path class="st3" d="M110.7,762.4c39.2,250.1,505.9,335.7,1051.5,250.1c545.6-85.6,963.6-309.9,924.4-560
					c-20.7-131.8-162.2-231.2-371.3-283.2l-3.1,0.9c149.4,41.1,247.2,110.8,261.4,201.7c13.3,84.8-50,162.5-165.6,229.6
					c-105.7,53.1-217.5,96.1-334.6,130.4l7.1-43.6c1.9-11.8-4-23.5-14.6-28.9l-37.9-19.5c-7.1-3.6-15-5.4-23-5.2l-57.3,1.5
					c-5.9,0.2-6.9,8.5-1.2,10l27,7.3c8.6,2.3,16.3,7.1,22.2,13.7l17.2,19.3c8.9,10,10.1,24.8,2.8,36.1l-19.7,30.5
					c-133.3,34.1-273,57.6-418.1,72.4c-422.3,47.7-756.5,1.9-784.2-174.5c-15.7-100.3,73.2-207.1,229.1-298c0,0-0.5,0.1-1.5,0.2
					C211.1,471.3,88.4,620.4,110.7,762.4z"/>
			</g>
			<g class="st4">
				<path class="st2" d="M110.7,762.4c39.2,250.1,505.9,335.7,1051.5,250.1c377.9-59.3,694.6-185.1,840.5-340
					C1837,795.7,1560.6,893.8,1240,944.1c-545.6,85.6-1012.2,0-1051.5-250.1c-4.9-31.5-2.8-63.4,6-95.2c0,0,0,0,0-0.1
					c6-31.6,21.4-63.5,45.2-95c0.1-0.1,0.2-0.3,0.3-0.5c39.6-52.2,102.2-103.3,182.6-150.2c0,0-0.5,0.1-1.5,0.2
					c-45.6,25.6-87.2,52.7-124,80.9C164.6,535.8,93.2,651.3,110.7,762.4z"/>
			</g>
			<g>
				<path class="st3" d="M1397.5,322.4l68-10.7l41.7-56.9l148.7,1.8l125.9-68.5l102.8,31.6l-210,59.2l-148.8,12.4l-61.7,54.6
					l-66.7-11C1390.4,333.8,1390.4,323.5,1397.5,322.4z"/>
			</g>
			<g>
				<path class="st3" d="M742.5,219.4l74.3,54.3l72.4,1.6c15.4,0.3,28.9,10.4,33.5,25.1l19.4,61.4c1.7,5.4-5.5,9-8.8,4.3l-46.7-66.5
					l-116.5,9.2L655.8,248"/>
			</g>
			<g class="st5">
				<path class="st6" d="M125.4,640.8c49.7-87.1,145.8-171.2,274.8-243.7c160-89.9,370.6-161.7,606.4-198.7
					c258-40.5,500-32,687.6,14.7c209.1,52,350.6,151.3,371.3,283.2c5.8,37,1.6,73.5-11.6,109.1c28.9-49.1,40.8-100.4,32.6-152.8
					c-20.7-131.8-162.2-231.2-371.3-283.2c-187.6-46.6-429.6-55.1-687.6-14.7c-235.9,37-446.5,108.9-606.4,198.7
					C270.6,437.9,165,538.4,125.4,640.8z"/>
			</g>
			<g>
				<polyline class="st3" points="828.3,594.1 665.1,650.9 639.5,713.7 539.2,740.7 396.1,840.8 542.9,861.1 568.7,767.4 
					694.1,760.6 686.5,669.3 836.2,644.6 				"/>
			</g>
			<g>
				<path class="st2" d="M771.5,1062.1c-121.6,0-233.1-10.6-328.7-31.7C234.2,984.3,113.4,892.5,93.4,765.1
					C73.3,637,160.9,501,340.1,382.2c175.2-116.2,418.4-203.1,684.7-244.9c266.3-41.8,524.4-33.4,726.8,23.5
					c207,58.2,332,160.8,352.1,288.9c20,127.4-66.9,251.8-251.3,359.5c-169.9,99.3-414.1,177.6-687.6,220.5
					C1027.4,1051.3,894.3,1062.1,771.5,1062.1z M1352.3,146.1c-103.5,0-212,8.6-322,25.8c-261.4,41-499.7,126.1-670.8,239.5
					C192.3,522.2,110.1,645.9,128,759.7c22.2,141.5,187.5,206.7,322.3,236.5c188,41.6,439.8,41.2,709.1-1
					c269.3-42.2,509.1-119,675.4-216.1c119.2-69.6,256.6-182.4,234.4-323.9c-17.8-113.8-134-206.4-327-260.7
					C1627.8,162.3,1494.7,146.1,1352.3,146.1z"/>
			</g>
			<g>
				<path class="st2" d="M1805.4,597.2c21-17.3,42-33.7,61.7-51.2c19.7-17.4,38.1-35.8,53.9-55.7c15.5-19.9,29.1-41.4,35-65l2.2-8.8
					l1.2-9c1.1-6,0.6-12,0.9-18.1c-0.1-3-0.6-6-0.8-9c-0.4-3-0.4-6.1-1.2-9c-1.4-5.9-2.2-12-4.5-17.6c-7.5-23.2-21.3-44.4-38.8-62.6
					c-17.5-18.3-38.4-33.8-60.7-47.1c-22.4-13.3-46.2-24.6-70.6-34.4c-24.6-9.7-49.8-17.7-75.4-25l-0.2-0.1
					c-8-2.3-12.6-10.6-10.3-18.5c2.3-8,10.6-12.6,18.5-10.3c26.5,7.5,52.7,15.9,78.5,26.1c25.7,10.4,50.9,22.2,75,36.6
					c24,14.4,47,31.3,67,52.1c19.9,20.7,36.5,45.8,45.7,74.1c2.7,6.9,3.8,14.4,5.5,21.6c0.9,3.6,1.1,7.4,1.5,11.1
					c0.3,3.7,0.9,7.4,1,11.1l-0.1,11.2c0.1,3.8-0.3,7.5-0.8,11.2c-0.4,3.7-0.8,7.4-1.4,11.1l-2.5,10.9
					c-6.8,29.1-21.6,55.3-39.6,77.5c-18.1,22.3-39.7,40.8-62.6,56.6c-23,15.7-47.3,28.9-72.9,39c-2.6,1-5.5-0.3-6.6-2.8
					C1803,600.9,1803.7,598.6,1805.4,597.2L1805.4,597.2z"/>
			</g>
			<g>
				<path class="st2" d="M1331.9,762.1c20.6-9.3,41.6-16.3,62.7-23.1c21.1-6.6,42.3-12.5,63.7-18c21.3-5.5,42.7-10.9,64.3-15.8
					c21.6-4.8,43.2-9.6,65.3-13.1c2.8-0.4,5.4,1.4,5.8,4.2c0.3,2.2-0.8,4.3-2.6,5.3c-19.8,10.7-40.5,19.4-61.4,27.4
					c-20.9,7.9-42.2,14.7-63.6,20.8c-21.5,6.1-43.2,11.2-65.2,15.1c-22,3.8-44.2,6.7-66.9,6.9c-2.8,0-5.1-2.2-5.2-5.1
					C1328.9,764.8,1330.1,762.9,1331.9,762.1z"/>
			</g>
			<g>
				<path class="st2" d="M430.2,366.1c-44.5,26-87.2,55.2-125.1,89.3c-18.9,17.1-36.5,35.4-51.8,55.2c-15.3,19.8-28.1,41.3-36.5,64
					c-8.4,22.7-12,46.7-9,70.1c0.2,1.5,0.3,2.9,0.6,4.4l0.9,4.3l1.8,8.6c0.7,2.9,1.8,5.5,2.7,8.3c1,2.7,1.7,5.6,3,8.2l3.8,7.9
					c0.6,1.3,1.2,2.7,1.9,3.9l2.3,3.7l4.6,7.5c1.6,2.5,3.6,4.7,5.4,7.1c14.6,18.7,34,34.2,55.4,46.8c21.4,12.6,44.8,22.5,68.8,30.7
					c48.1,16.4,99.1,25.9,150.3,31.9c51.3,6,103.2,8.2,155,8.9c103.8,1.9,207.9-2.8,312.7-6.4c2.8-0.1,5.1,2.1,5.2,4.8
					c0.1,2.5-1.7,4.6-4.1,5.1c-51.6,9.9-103.8,17.1-156.2,21.8c-26.2,2.3-52.5,4.1-78.8,5.2c-13.2,0.4-26.3,1-39.5,1.1
					c-13.2,0.2-26.4,0.5-39.6,0.3c-26.4-0.3-52.8-1.3-79.2-3c-26.4-1.9-52.8-4.3-79.1-7.6c-26.3-3.1-52.6-7.6-78.7-13
					c-26.1-5.2-52.1-12.2-77.6-20.8c-25.5-8.7-50.6-19.3-74.4-33.2c-23.7-14-46.1-31.6-63.7-54.1c-2.2-2.9-4.5-5.6-6.5-8.5l-5.7-9.2
					l-2.8-4.6c-0.9-1.6-1.6-3.2-2.4-4.9l-4.7-9.8c-1.6-3.2-2.5-6.8-3.8-10.2c-1.1-3.4-2.5-6.8-3.3-10.3l-2.3-10.6l-1.1-5.3
					c-0.3-1.8-0.5-3.6-0.7-5.4c-3.7-28.7,0.8-57.9,10.6-84.2c9.8-26.4,24.2-50.4,40.9-71.9c16.7-21.7,35.5-41.2,55.4-59.2
					c40-36,84.3-66.2,130.1-93c7.1-4.2,16.3-1.8,20.5,5.4C439.8,352.7,437.4,361.9,430.2,366.1L430.2,366.1L430.2,366.1z"/>
			</g>
			<g class="st4">
				<path class="st8" d="M1758.3,464.7c-46.6,174.3-403.6,200.8-283.1,59.2"/>
				<path class="st2" d="M1522.7,617.5c-35.8,0-61.5-9.6-70.8-27.2c-6.4-12-7.9-33.6,21.4-68.1l3.8,3.2
					c-21.8,25.6-29,47.2-20.8,62.5c10.4,19.5,45.9,28.3,92.7,22.9c86-9.9,184.6-63.5,206.9-146.8l4.8,1.3
					c-22.8,85.5-123.5,140.4-211.2,150.5C1540.1,616.9,1531.1,617.5,1522.7,617.5z"/>
			</g>
			<g class="st4">
				<path class="st8" d="M1505.1,158.8c-46.6,174.3-403.6,200.8-283.1,59.2"/>
				<path class="st2" d="M1269.4,311.5c-35.7,0-61.5-9.6-70.8-27.2c-6.4-12-7.9-33.6,21.4-68.1l3.8,3.2
					c-21.8,25.6-29,47.2-20.8,62.5c10.4,19.5,45.9,28.3,92.7,22.9c86-9.9,184.7-63.5,206.9-146.8l4.8,1.3
					c-22.8,85.5-123.5,140.4-211.2,150.5C1286.8,311,1277.8,311.5,1269.4,311.5z"/>
			</g>
			<g class="st4">
				<path class="st8" d="M1016.8,616.3C970.3,790.6,661,769.2,781.6,627.6"/>
				<path class="st2" d="M839.4,743c-39.6,0-71-13-82.9-35.3c-8.2-15.3-10.8-41.9,23.1-81.7l3.8,3.2c-25.4,29.8-33.1,56.1-22.5,76.1
					c12.9,24.2,53.2,36.8,100.2,31.3c57.5-6.6,132.1-42.3,153.2-121.1l4.8,1.3c-21.7,81.2-98.4,117.9-157.4,124.7
					C854.1,742.6,846.7,743,839.4,743z"/>
			</g>
			<g class="st4">
				<path class="st8" d="M667.4,461.9c-46.6,174.3-311.4,135.6-190.9-6"/>
				<path class="st2" d="M521.4,580.5c-33.6,0-61.3-12.7-72.7-34.2c-13-24.4-3.8-57.1,25.9-92l3.8,3.2c-28.3,33.3-37.3,64-25.3,86.4
					c12.3,23,45.2,35,83.9,30.6c48.8-5.6,108-38.3,128-113.3l4.8,1.3c-20.7,77.4-81.9,111.2-132.3,117
					C532.1,580.2,526.7,580.5,521.4,580.5z"/>
			</g>
			<g class="st4">
				<path class="st8" d="M1204,409c-27.1,101.3-199.9,92-129.9,9.8"/>
				<path class="st2" d="M1102.5,485.3c-21.2,0-38-7.1-44.5-19.2c-4.8-9-6.3-24.8,14.1-48.8l3.8,3.2c-14.7,17.3-19.4,32.3-13.5,43.2
					c6.7,12.5,26.8,18.7,51.2,15.9c32.8-3.8,75.5-24.7,87.9-71.2l4.8,1.3c-13.1,49-57.8,70.9-92.2,74.9
					C1110.2,485,1106.3,485.3,1102.5,485.3z"/>
			</g>
			<g>
				<path class="st7" d="M500.3,517.7c-24.8-5.6-37.3-33.3-26.6-56.3c37.1-79.6,136.2-89.5,181.8-47.7c15.8,14.2,16.2,32.9,0.5,42.3
					c-4.8,2.9-10.4,4.3-16,4.5c-7.9,0.3-27.6,4.1-39.7,33.4C595.4,505.4,539.9,526.6,500.3,517.7z"/>
				<path class="st2" d="M521,522.3c-7.3,0-14.5-0.7-21.3-2.2l0,0c-12.2-2.7-22.3-10.8-27.9-22.2c-5.8-11.9-6-25.6-0.4-37.6
					c17.3-37.1,50.2-62.9,90.2-70.9c36-7.2,72.6,1.4,95.5,22.4c9,8.1,13.7,18.1,12.8,27.5c-0.8,7.7-5.3,14.4-12.7,18.8
					c-5,3-11,4.7-17.2,4.9c-7.4,0.3-25.9,3.9-37.5,31.8C597.9,505.8,557.6,522.3,521,522.3z M500.9,515.3
					c38.5,8.6,92.8-12.3,97-22.4c12.7-30.6,33.6-34.6,42-34.9c5.4-0.2,10.6-1.6,14.9-4.2c6.1-3.6,9.7-8.8,10.3-15
					c0.8-7.7-3.3-16.2-11.2-23.3c-21.8-19.9-56.7-28.1-91.1-21.2c-38.5,7.7-70.1,32.5-86.7,68.1c-5,10.6-4.8,22.8,0.3,33.3
					C481.3,505.8,490.2,512.9,500.9,515.3L500.9,515.3z"/>
			</g>
			<g class="st5">
				<path class="st6" d="M473.2,494.9c0.3-0.9,0.7-1.7,1.1-2.5c37.1-79.6,136.2-89.5,181.7-47.7c2.4,2.1,4.4,4.3,6,6.6
					c9.3-10.1,6.9-25.4-6.5-37.4c-45.6-41.7-144.7-31.8-181.7,47.7C468.6,472.5,468.8,484.6,473.2,494.9z"/>
			</g>
			<g>
				<path class="st7" d="M1516,558.4c-37.1-8.3-55.9-49.8-39.8-84.3c55.6-119.2,204-134.1,272.4-71.5c23.7,21.2,24.3,49.3,0.7,63.4
					c-7.3,4.3-15.6,6.5-24,6.8c-11.8,0.4-41.3,6.1-59.6,50C1658.5,540,1575.3,571.7,1516,558.4z"/>
				<path class="st2" d="M1547.3,564.1c-11,0-21.8-1-31.8-3.3c-17.9-4-32.8-15.9-41-32.5c-8.6-17.5-8.8-37.6-0.5-55.3
					c25.7-55.2,74.7-93.7,134.3-105.6c53.6-10.7,108,2.1,142,33.2c13.2,11.9,20.1,26.5,18.7,40.1c-1.1,11.2-7.6,20.9-18.5,27.3
					c-7.3,4.4-16,6.8-25.2,7.1c-11.3,0.4-39.6,5.9-57.3,48.4C1661.2,539.8,1601.6,564.1,1547.3,564.1z M1645.7,368.8
					c-12,0-24.3,1.2-36.5,3.6c-58,11.6-105.7,49-130.8,102.8c-7.6,16.3-7.4,34.9,0.5,50.9c7.5,15.3,21.2,26.2,37.6,29.9
					c58.2,13.1,140.4-18.9,146.8-34.2c18.8-45.2,49.5-51.1,61.8-51.5c8.4-0.3,16.3-2.5,22.9-6.4c9.6-5.7,15.1-13.8,16-23.5
					c1.2-12-5.1-25.1-17.1-35.9C1721.7,381.4,1684.9,368.8,1645.7,368.8z"/>
			</g>
			<g class="st5">
				<path class="st6" d="M1476.5,526.6c0.8-5.9,2.5-11.8,5.2-17.6c55.6-119.2,204-134.1,272.4-71.5c4.1,3.7,7.6,7.6,10.3,11.6
					c5.9-14.2,0.5-32.1-15.8-46.6c-68.4-62.6-216.8-47.7-272.4,71.5C1468,491.6,1468.8,510.8,1476.5,526.6z"/>
			</g>
			<g>
				<path class="st2" d="M1546,576.4c-11.7,0-23-1-33.3-3.3l0,0c-21.6-4.8-39.6-19.1-49.5-39.2c-10.3-20.9-10.5-44.9-0.6-66.1
					c27.4-58.9,79.6-99.9,143.2-112.6c57.4-11.4,116,2.5,152.9,36.3c16.1,14.5,24.5,32.9,22.7,50.5c-1.5,15.2-10.2,28.3-24.5,36.8
					c-9.1,5.4-19.9,8.5-31.2,8.9c-8.9,0.3-31.3,4.9-46.2,40.7C1669.7,552.1,1602.7,576.4,1546,576.4z M1645.8,381.2
					c-11.2,0-22.7,1.1-34.1,3.4c-54.1,10.8-98.5,45.7-121.9,95.8c-6,12.8-5.8,27.5,0.4,40.2c5.9,12.1,16.3,20.3,29.1,23.2
					c52.1,11.7,123.5-15.5,132.7-27.4c21.6-51.4,58-58.1,72.7-58.6c6.3-0.2,12.1-1.8,16.9-4.7c6.1-3.6,9.4-8.3,10-13.9
					c0.8-8-4-17.3-13-25.4C1715.6,392.7,1681.9,381.2,1645.8,381.2z"/>
			</g>
			<g>
				<path class="st2" d="M521.3,534.8c-8.4,0-16.6-0.8-24.2-2.5l0,0c-15.9-3.6-29.1-14.1-36.4-28.8c-7.5-15.3-7.7-32.9-0.5-48.4
					c19-40.7,55.1-69.1,99.1-77.9c39.8-7.9,80.6,1.8,106.4,25.4c11.9,10.7,18.1,24.5,16.8,37.9c-1.2,11.8-7.8,21.9-18.8,28.4
					c-6.8,4-14.8,6.3-23.2,6.6c-5,0.2-17.6,2.9-26.4,24.1C606.7,517.2,561.5,534.8,521.3,534.8z M503.6,503.1
					c31.9,7.2,75.5-9.1,83.3-16.3c15.6-36.1,41.9-40.9,52.5-41.3c3.3-0.1,6.4-1,8.9-2.4c3.9-2.3,4.2-4.7,4.2-5.5
					c0.3-2.8-1.4-7.7-7.1-12.7c-19-17.4-49.7-24.3-80.4-18.2c-34.5,6.9-62.9,29.2-77.8,61.2c-3.4,7.2-3.3,15.4,0.2,22.5
					C490.8,496.9,496.5,501.5,503.6,503.1L503.6,503.1z M587.4,486.3L587.4,486.3L587.4,486.3z"/>
			</g>
			<g>
				<path class="st7" d="M781.6,627.6c-6.4-132.7,137.7-140.8,218-59.2c24.8,25.2,17.1,66.7-15.1,81.3
					c-45.4,20.6-108.6,29-154.8,26.6C803.6,675.1,782.8,653.8,781.6,627.6z"/>
				<path class="st2" d="M844.8,679.3c-5.3,0-10.4-0.1-15.2-0.4c-27.5-1.4-49.2-23.4-50.5-51.2l0,0c-2.5-51.3,17.3-88.8,55.6-105.6
					c49.8-21.8,119.9-3.1,166.7,44.5c12.4,12.6,17.7,29.7,14.5,46.9c-3.2,17.2-14.3,31.2-30.4,38.5
					C943.2,671.3,887.2,679.3,844.8,679.3z M784.1,627.5c1.2,25.2,20.9,45.1,45.8,46.4c42.7,2.2,106.8-5.1,153.6-26.4
					c14.6-6.6,24.6-19.3,27.5-34.8c2.9-15.5-1.9-31-13.2-42.5c-45.4-46.2-113.2-64.4-161.2-43.4
					C800.4,542.7,781.7,578.4,784.1,627.5L784.1,627.5z"/>
			</g>
			<g class="st5">
				<path class="st6" d="M783.9,591.9c38.6-61.8,139.9-52.7,202.5,10.9c9.9,10,14.6,22.6,14.7,35.1c17.4-18.9,18.3-49.3-1.5-69.4
					C927.2,494.9,803,494.3,783.9,591.9z"/>
			</g>
			<g>
				<path class="st2" d="M845.1,691.8c-5.7,0-11.1-0.1-16.1-0.4c-33.9-1.7-60.8-28.8-62.4-63v0c-3.7-76.7,37.9-106.6,63.1-117.6
					c54.4-23.8,130.3-3.9,180.6,47.2c15.3,15.6,21.9,36.7,17.9,57.9c-3.9,21.2-17.6,38.6-37.5,47.6
					C944.2,684.6,886.6,691.8,845.1,691.8z M796.5,626.9c0.9,18.4,15.8,33.6,34,34.5c41.2,2.1,102.9-4.9,147.8-25.3
					c10.8-4.9,18.3-14.3,20.4-25.8c2.1-11.5-1.4-22.9-9.8-31.4c-41.9-42.6-103.8-59.8-147.2-40.8C810,552.1,794.4,582.8,796.5,626.9
					L796.5,626.9z"/>
			</g>
			<g>
				<path class="st7" d="M1221.5,197.5c-3.3-133.2,172.3-146.3,267.3-66.9c29.4,24.5,18.6,66.5-21.1,82.3
					c-55.9,22.2-133.1,32.8-189.2,32C1246.7,244.4,1222.1,223.7,1221.5,197.5z"/>
				<path class="st2" d="M1284.1,247.4c-1.9,0-3.8,0-5.7,0c-33.2-0.5-58.7-21.9-59.4-49.8c-1.2-47.3,20.5-84.1,60.9-103.6
					c61.1-29.5,151.5-14.5,210.5,34.7c13.4,11.2,19.6,26.8,17,42.8c-3,18.9-17.6,35.3-38.8,43.8
					C1412.1,237.6,1336.5,247.4,1284.1,247.4z M1351.2,83.9c-24.9,0-48.7,4.7-69.2,14.6c-27.3,13.2-59.5,41-58.1,99l0,0
					c0.6,25.2,24,44.5,54.5,45c52,0.8,130.4-8.8,188.2-31.8c19.6-7.8,33-22.7,35.8-39.9c2.3-14.2-3.3-28.1-15.3-38.1
					C1449.4,101,1398.5,83.9,1351.2,83.9z"/>
			</g>
			<g class="st5">
				<path class="st6" d="M1226.7,157.1c52.5-55.9,168.9-48.4,240.1,11.1c12.1,10.1,17.3,23,16.7,36c26.2-19.2,30.3-52.7,5.3-73.6
					C1404.4,60.2,1256.6,62.6,1226.7,157.1z"/>
			</g>
			<g>
				<path class="st2" d="M1284,259.9c-2,0-3.9,0-5.8,0c-40-0.6-70.9-27.2-71.7-62l0,0c-1.3-52.5,22.8-93.4,67.9-115.2
					c65.2-31.5,161.5-15.8,223.9,36.4c16.8,14.1,24.6,33.9,21.4,54.3c-3.7,23.3-21.1,43.3-46.6,53.4
					C1415.2,249.9,1337.7,259.9,1284,259.9z M1350.6,96.6c-22.9,0-44.7,4.2-63.1,13.1c-24,11.6-52.3,36.1-51,87.4l0,0
					c0.4,18,19,32.4,42.2,32.8c50.9,0.7,127.2-8.6,183.4-30.9c15.5-6.2,26-17.5,28-30.3c1.6-9.9-2.3-19.3-11-26.6
					C1444,112.8,1395.3,96.6,1350.6,96.6z"/>
			</g>
			<g>
				<path class="st7" d="M319.6,649.1c33.7,13.6,61,29.1,78.4,47.6c25.6,27.1,20.1,71-10.3,92.7c-44.3,31.7-88.6,43.3-133.2,12.2
					c-31.8-22.2-49.1-60.6-44.6-99.1c3.4-28.7,17.5-50.3,49.3-58.4C279.3,639.1,300.5,641.4,319.6,649.1z"/>
				<path class="st2" d="M308.8,822.2c-19.5,0-37.9-6.2-55.7-18.5c-32.3-22.5-50.3-62.3-45.7-101.4c3.8-32.5,21-52.9,51.2-60.5
					c19.6-5,41.6-3.2,61.9,5l0,0c36.8,14.9,62.7,30.6,79.3,48.2c12.3,13.1,18.4,31,16.6,49.2c-1.8,19-11.8,36.2-27.3,47.3
					C360.5,812,333.8,822.2,308.8,822.2z M281.4,644c-7.3,0-14.5,0.9-21.5,2.6c-28.3,7.1-43.8,25.5-47.4,56.2
					c-4.4,37.3,12.7,75.2,43.6,96.7c39.1,27.3,80.5,23.4,130.3-12.2c14.3-10.2,23.5-26.2,25.2-43.7c1.7-17-3.8-33.1-15.3-45.3
					c-16.1-17-41.4-32.4-77.5-47C306.6,646.5,293.8,644,281.4,644z"/>
			</g>
			<g class="st5">
				<path class="st6" d="M211.5,693.6c7.6-7.7,17.8-13.4,31-16.7c20-5.1,41.2-2.8,60.3,4.9c33.7,13.6,60.9,29.1,78.4,47.6
					c13.8,14.6,18.6,34.2,15.3,52.5c22.4-23.2,24.5-60.9,1.6-85.2c-17.4-18.5-44.8-34-78.4-47.6c-19.1-7.7-40.3-9.9-60.3-4.9
					C230.9,651.4,216.6,669.5,211.5,693.6z"/>
			</g>
			<g>
				<path class="st7" d="M1137.9,339c20.7,8.4,37.5,17.9,48.2,29.2c15.7,16.7,12.3,43.7-6.3,57c-27.2,19.5-54.5,26.6-81.8,7.5
					c-19.5-13.6-30.2-37.2-27.4-60.9c2.1-17.6,10.8-30.9,30.3-35.9C1113.1,332.9,1126.1,334.3,1137.9,339z"/>
				<path class="st2" d="M1131.2,446.4c-12.1,0-23.7-3.9-34.8-11.6c-20.2-14-31.3-38.9-28.5-63.2c2.4-20.4,13.2-33.2,32.2-38
					c12.3-3.1,26-2,38.6,3.1l0,0c22.7,9.2,38.8,19,49.1,29.9c7.8,8.2,11.6,19.5,10.5,31c-1.2,11.9-7.4,22.8-17.2,29.7
					C1163.4,440,1146.8,446.4,1131.2,446.4z M1114.3,336.9c-4.4,0-8.8,0.5-12.9,1.6c-17,4.3-26.3,15.3-28.4,33.7
					c-2.6,22.5,7.7,45.5,26.4,58.5c23.6,16.5,48.7,14.1,78.9-7.5c8.6-6.1,14.1-15.7,15.1-26.2c1-10.2-2.3-19.8-9.1-27.1
					c-9.8-10.4-25.2-19.7-47.3-28.6l0,0C1129.6,338.4,1121.9,336.9,1114.3,336.9z"/>
			</g>
			<g class="st5">
				<path class="st6" d="M1070.6,387.1c4.6-9.5,12.8-16.4,25.8-19.7c12.3-3.1,25.3-1.7,37.1,3c20.6,8.4,37.4,17.9,48.2,29.2
					c4,4.3,6.8,9.3,8.4,14.5c8.9-14.1,8.1-33.1-4-46c-10.7-11.4-27.5-20.9-48.2-29.3c-11.7-4.7-24.8-6.1-37.1-3
					c-19.5,4.9-28.3,18.3-30.3,35.9C1069.9,377,1069.9,382.1,1070.6,387.1z"/>
			</g>
			<g>
				<path class="st2" d="M308.8,835c-21.9,0-42.7-7-62.8-21c-36.6-25.5-56.1-68.9-50.9-113.1c4.4-37.7,25.4-62.3,60.5-71.2
					c22.5-5.7,46.6-3.8,69.6,5.5l0,0c38.5,15.5,65.9,32.3,83.7,51.2c14.8,15.7,22.1,37.2,20,59c-2.2,22.6-14,43.1-32.4,56.2
					C365.4,823.9,336.3,835,308.8,835z M281.4,656.5c-6.3,0-12.5,0.7-18.4,2.2c-23,5.8-35.1,20.3-38.1,45.6
					c-3.9,32.7,11.2,66.1,38.3,85c34.6,24.1,70.4,20.4,115.9-12.1c11.4-8.1,18.7-20.8,20-34.7c1.3-13.4-2.9-26-11.9-35.5
					c-14.8-15.7-38.7-30.1-73.1-44C303.4,658.7,292.2,656.5,281.4,656.5z"/>
			</g>
			<g>
				<path class="st2" d="M1131.1,458.9c-14.6,0-28.6-4.6-41.8-13.8c-24.2-16.9-37.2-45.6-33.7-74.9c3-25.7,17.4-42.6,41.5-48.7
					c15-3.8,31.1-2.5,46.4,3.6c0,0,0,0,0,0c24.4,9.9,41.9,20.6,53.5,32.9c10.2,10.9,15.3,25.7,13.8,40.8
					c-1.5,15.5-9.6,29.6-22.3,38.7C1168.5,451.7,1149.3,458.9,1131.1,458.9z M1114.4,349.4c-3.4,0-6.7,0.4-9.9,1.2
					c-11.8,3-17.5,9.9-19.1,23.1c-2.1,18,6.2,36.4,21.1,46.8c19.2,13.4,38.5,11.2,64.5-7.4c5.6-4,9.2-10.3,9.9-17.2
					c0.6-6.5-1.4-12.7-5.8-17.3c-8.4-8.9-22.8-17.5-42.9-25.6l0,0C1126.4,350.6,1120.3,349.4,1114.4,349.4z"/>
			</g>
			<g>
				<polygon class="st3" points="1360.3,543.2 1319.1,506.4 1246.5,503.1 1180.7,481.7 1240.4,530.6 1295.1,530.7 				"/>
			</g>
		</g>
		<g class="st4">
			<ellipse class="st2" cx="1098.6" cy="2719.4" rx="759.1" ry="140"/>
		</g>
	</g>
</g>
</svg>
